<svg version="1.1" aria-hidden="true" focusable="false" id="circle-arrow" class="circle-arrow" xmlns="http://www.w3.org/2000/svg" xmlns:xlink="http://www.w3.org/1999/xlink" width="13px" height="13px" role="img" viewBox="0 0 496 496"><path fill="currentColor" d="M256,8C393,8,504,119,504,256S393,504,256,504,8,393,8,256,119,8,256,8ZM369.9,239,234.4,103.5a23.9,23.9,0,0,0-33.9,0l-17,17a23.9,23.9,0,0,0,0,33.9L285.1,256,183.5,357.6a23.9,23.9,0,0,0,0,33.9l17,17a23.9,23.9,0,0,0,33.9,0L369.9,273A24,24,0,0,0,369.9,239Z" /></svg>